name rise42.5664peak47.7979fall81.9185.mot
datacolumns 19
datarows 36
range 6.32164200000000 6.37997900000000
endheader
time	ground_force1_vx	ground_force1_vy	ground_force1_vz	ground_force1_px	ground_force1_py	ground_force1_pz	ground_force2_vx	ground_force2_vy	ground_force2_vz	ground_force2_px	ground_force2_py	ground_force2_pz	ground_torque1_x	ground_torque1_y	ground_torque1_z	ground_torque2_x	ground_torque2_y	ground_torque2_z	
6.32164200000000	17.05546400000000	698.74758899999995	38.87648400000000	0.19361000000000	0.00000000000000	0.08069300000000	0.00000000000000	0.00000000000000	0.00000000000000	0.00000000000000	0.00000000000000	0.00000000000000	0.00000000000000	12.80772100000000	0.00000000000000	0.00000000000000	0.00000000000000	0.00000000000000	
6.32331000000000	16.68847100000000	699.71235500000000	38.89561900000000	0.19265600000000	0.00000000000000	0.08067700000000	0.00000000000000	0.00000000000000	0.00000000000000	0.00000000000000	0.00000000000000	0.00000000000000	0.00000000000000	12.83911500000000	0.00000000000000	0.00000000000000	0.00000000000000	0.00000000000000	
6.32497800000000	16.31535800000000	700.71345599999995	38.91724200000000	0.19169400000000	0.00000000000000	0.08066000000000	0.00000000000000	0.00000000000000	0.00000000000000	0.00000000000000	0.00000000000000	0.00000000000000	0.00000000000000	12.87292100000000	0.00000000000000	0.00000000000000	0.00000000000000	0.00000000000000	
6.32664600000000	15.93610000000000	701.74898099999996	38.94107400000000	0.19072500000000	0.00000000000000	0.08064400000000	0.00000000000000	0.00000000000000	0.00000000000000	0.00000000000000	0.00000000000000	0.00000000000000	0.00000000000000	12.90905100000000	0.00000000000000	0.00000000000000	0.00000000000000	0.00000000000000	
6.32830400000000	15.55069400000000	702.81707800000004	38.96684200000000	0.18974800000000	0.00000000000000	0.08062800000000	0.00000000000000	0.00000000000000	0.00000000000000	0.00000000000000	0.00000000000000	0.00000000000000	0.00000000000000	12.94741400000000	0.00000000000000	0.00000000000000	0.00000000000000	0.00000000000000	
6.32997400000000	15.15916000000000	703.91596100000004	38.99428800000000	0.18876500000000	0.00000000000000	0.08061100000000	0.00000000000000	0.00000000000000	0.00000000000000	0.00000000000000	0.00000000000000	0.00000000000000	0.00000000000000	12.98792300000000	0.00000000000000	0.00000000000000	0.00000000000000	0.00000000000000	
6.33164200000000	14.76153800000000	705.04390899999999	39.02316500000000	0.18777600000000	0.00000000000000	0.08059300000000	0.00000000000000	0.00000000000000	0.00000000000000	0.00000000000000	0.00000000000000	0.00000000000000	0.00000000000000	13.03048900000000	0.00000000000000	0.00000000000000	0.00000000000000	0.00000000000000	
6.33331000000000	14.35788900000000	706.19927199999995	39.05323800000000	0.18678300000000	0.00000000000000	0.08057600000000	0.00000000000000	0.00000000000000	0.00000000000000	0.00000000000000	0.00000000000000	0.00000000000000	0.00000000000000	13.07502100000000	0.00000000000000	0.00000000000000	0.00000000000000	0.00000000000000	
6.33497500000000	13.94829500000000	707.38047700000004	39.08428500000000	0.18578500000000	0.00000000000000	0.08055700000000	0.00000000000000	0.00000000000000	0.00000000000000	0.00000000000000	0.00000000000000	0.00000000000000	0.00000000000000	13.12142900000000	0.00000000000000	0.00000000000000	0.00000000000000	0.00000000000000	
6.33664300000000	13.53285800000000	708.58602599999995	39.11610200000000	0.18478400000000	0.00000000000000	0.08053800000000	0.00000000000000	0.00000000000000	0.00000000000000	0.00000000000000	0.00000000000000	0.00000000000000	0.00000000000000	13.16962200000000	0.00000000000000	0.00000000000000	0.00000000000000	0.00000000000000	
6.33830500000000	13.11169600000000	709.81449699999996	39.14849500000000	0.18378100000000	0.00000000000000	0.08051800000000	0.00000000000000	0.00000000000000	0.00000000000000	0.00000000000000	0.00000000000000	0.00000000000000	0.00000000000000	13.21950800000000	0.00000000000000	0.00000000000000	0.00000000000000	0.00000000000000	
6.33997800000000	12.68494800000000	711.06455200000005	39.18128700000000	0.18277600000000	0.00000000000000	0.08049800000000	0.00000000000000	0.00000000000000	0.00000000000000	0.00000000000000	0.00000000000000	0.00000000000000	0.00000000000000	13.27099600000000	0.00000000000000	0.00000000000000	0.00000000000000	0.00000000000000	
6.34164500000000	12.25277000000000	712.33492999999999	39.21431700000000	0.18177000000000	0.00000000000000	0.08047600000000	0.00000000000000	0.00000000000000	0.00000000000000	0.00000000000000	0.00000000000000	0.00000000000000	0.00000000000000	13.32399100000000	0.00000000000000	0.00000000000000	0.00000000000000	0.00000000000000	
6.34330800000000	11.81533400000000	713.62445200000002	39.24744100000000	0.18076300000000	0.00000000000000	0.08045400000000	0.00000000000000	0.00000000000000	0.00000000000000	0.00000000000000	0.00000000000000	0.00000000000000	0.00000000000000	13.37840100000000	0.00000000000000	0.00000000000000	0.00000000000000	0.00000000000000	
6.34497700000000	11.37282600000000	714.93201899999997	39.28052800000000	0.17975600000000	0.00000000000000	0.08043000000000	0.00000000000000	0.00000000000000	0.00000000000000	0.00000000000000	0.00000000000000	0.00000000000000	0.00000000000000	13.43413000000000	0.00000000000000	0.00000000000000	0.00000000000000	0.00000000000000	
6.34663800000000	10.92544900000000	716.25661400000001	39.31346500000000	0.17875000000000	0.00000000000000	0.08040600000000	0.00000000000000	0.00000000000000	0.00000000000000	0.00000000000000	0.00000000000000	0.00000000000000	0.00000000000000	13.49108100000000	0.00000000000000	0.00000000000000	0.00000000000000	0.00000000000000	
6.34831300000000	10.47341900000000	717.59729300000004	39.34615800000000	0.17774500000000	0.00000000000000	0.08038100000000	0.00000000000000	0.00000000000000	0.00000000000000	0.00000000000000	0.00000000000000	0.00000000000000	0.00000000000000	13.54915800000000	0.00000000000000	0.00000000000000	0.00000000000000	0.00000000000000	
6.34997300000000	10.01696400000000	718.95319500000005	39.37852600000000	0.17674200000000	0.00000000000000	0.08035500000000	0.00000000000000	0.00000000000000	0.00000000000000	0.00000000000000	0.00000000000000	0.00000000000000	0.00000000000000	13.60826300000000	0.00000000000000	0.00000000000000	0.00000000000000	0.00000000000000	
6.35163900000000	9.55632600000000	720.32352700000001	39.41050700000000	0.17574100000000	0.00000000000000	0.08032700000000	0.00000000000000	0.00000000000000	0.00000000000000	0.00000000000000	0.00000000000000	0.00000000000000	0.00000000000000	13.66829700000000	0.00000000000000	0.00000000000000	0.00000000000000	0.00000000000000	
6.35331300000000	9.09175500000000	721.70757300000002	39.44205400000000	0.17474200000000	0.00000000000000	0.08029900000000	0.00000000000000	0.00000000000000	0.00000000000000	0.00000000000000	0.00000000000000	0.00000000000000	0.00000000000000	13.72915800000000	0.00000000000000	0.00000000000000	0.00000000000000	0.00000000000000	
6.35497900000000	8.62351400000000	723.10468000000003	39.47313700000000	0.17374600000000	0.00000000000000	0.08027000000000	0.00000000000000	0.00000000000000	0.00000000000000	0.00000000000000	0.00000000000000	0.00000000000000	0.00000000000000	13.79074600000000	0.00000000000000	0.00000000000000	0.00000000000000	0.00000000000000	
6.35664000000000	8.15187300000000	724.51426400000003	39.50374200000000	0.17275300000000	0.00000000000000	0.08023900000000	0.00000000000000	0.00000000000000	0.00000000000000	0.00000000000000	0.00000000000000	0.00000000000000	0.00000000000000	13.85295800000000	0.00000000000000	0.00000000000000	0.00000000000000	0.00000000000000	
6.35830900000000	7.67711000000000	725.93579999999997	39.53387200000000	0.17176300000000	0.00000000000000	0.08020800000000	0.00000000000000	0.00000000000000	0.00000000000000	0.00000000000000	0.00000000000000	0.00000000000000	0.00000000000000	13.91569100000000	0.00000000000000	0.00000000000000	0.00000000000000	0.00000000000000	
6.35997500000000	7.19951100000000	727.36881900000003	39.56354500000000	0.17077600000000	0.00000000000000	0.08017600000000	0.00000000000000	0.00000000000000	0.00000000000000	0.00000000000000	0.00000000000000	0.00000000000000	0.00000000000000	13.97883900000000	0.00000000000000	0.00000000000000	0.00000000000000	0.00000000000000	
6.36164500000000	6.71936800000000	728.81290400000000	39.59279400000000	0.16979400000000	0.00000000000000	0.08014200000000	0.00000000000000	0.00000000000000	0.00000000000000	0.00000000000000	0.00000000000000	0.00000000000000	0.00000000000000	14.04229700000000	0.00000000000000	0.00000000000000	0.00000000000000	0.00000000000000	
6.36330800000000	6.23697800000000	730.26768500000003	39.62166600000000	0.16881400000000	0.00000000000000	0.08010800000000	0.00000000000000	0.00000000000000	0.00000000000000	0.00000000000000	0.00000000000000	0.00000000000000	0.00000000000000	14.10595800000000	0.00000000000000	0.00000000000000	0.00000000000000	0.00000000000000	
6.36497400000000	5.75264000000000	731.73283400000003	39.65022500000000	0.16783800000000	0.00000000000000	0.08007300000000	0.00000000000000	0.00000000000000	0.00000000000000	0.00000000000000	0.00000000000000	0.00000000000000	0.00000000000000	14.16971600000000	0.00000000000000	0.00000000000000	0.00000000000000	0.00000000000000	
6.36664600000000	5.26666000000000	733.20805800000005	39.67854600000000	0.16686600000000	0.00000000000000	0.08003700000000	0.00000000000000	0.00000000000000	0.00000000000000	0.00000000000000	0.00000000000000	0.00000000000000	0.00000000000000	14.23346100000000	0.00000000000000	0.00000000000000	0.00000000000000	0.00000000000000	
6.36830700000000	4.77934400000000	734.69309699999997	39.70671900000000	0.16589800000000	0.00000000000000	0.08000100000000	0.00000000000000	0.00000000000000	0.00000000000000	0.00000000000000	0.00000000000000	0.00000000000000	0.00000000000000	14.29708700000000	0.00000000000000	0.00000000000000	0.00000000000000	0.00000000000000	
6.36997300000000	4.29099900000000	736.18771300000003	39.73484700000000	0.16493300000000	0.00000000000000	0.07996300000000	0.00000000000000	0.00000000000000	0.00000000000000	0.00000000000000	0.00000000000000	0.00000000000000	0.00000000000000	14.36048300000000	0.00000000000000	0.00000000000000	0.00000000000000	0.00000000000000	
6.37164100000000	3.80193200000000	737.69168800000000	39.76304400000000	0.16397100000000	0.00000000000000	0.07992500000000	0.00000000000000	0.00000000000000	0.00000000000000	0.00000000000000	0.00000000000000	0.00000000000000	0.00000000000000	14.42354100000000	0.00000000000000	0.00000000000000	0.00000000000000	0.00000000000000	
6.37330900000000	3.31245100000000	739.20481800000005	39.79143500000000	0.16301200000000	0.00000000000000	0.07988600000000	0.00000000000000	0.00000000000000	0.00000000000000	0.00000000000000	0.00000000000000	0.00000000000000	0.00000000000000	14.48615100000000	0.00000000000000	0.00000000000000	0.00000000000000	0.00000000000000	
6.37497600000000	2.82286100000000	740.72690499999999	39.82015900000000	0.16205700000000	0.00000000000000	0.07984700000000	0.00000000000000	0.00000000000000	0.00000000000000	0.00000000000000	0.00000000000000	0.00000000000000	0.00000000000000	14.54820300000000	0.00000000000000	0.00000000000000	0.00000000000000	0.00000000000000	
6.37664400000000	2.33346500000000	742.25775199999998	39.84936200000000	0.16110400000000	0.00000000000000	0.07980800000000	0.00000000000000	0.00000000000000	0.00000000000000	0.00000000000000	0.00000000000000	0.00000000000000	0.00000000000000	14.60958900000000	0.00000000000000	0.00000000000000	0.00000000000000	0.00000000000000	
6.37830400000000	1.84456200000000	743.79715799999997	39.87919900000000	0.16015400000000	0.00000000000000	0.07976800000000	0.00000000000000	0.00000000000000	0.00000000000000	0.00000000000000	0.00000000000000	0.00000000000000	0.00000000000000	14.67020000000000	0.00000000000000	0.00000000000000	0.00000000000000	0.00000000000000	
6.37997900000000	1.35644700000000	745.34491000000003	39.90983800000000	0.15920600000000	0.00000000000000	0.07972700000000	0.00000000000000	0.00000000000000	0.00000000000000	0.00000000000000	0.00000000000000	0.00000000000000	0.00000000000000	14.72992700000000	0.00000000000000	0.00000000000000	0.00000000000000	0.00000000000000	
